<svg width="24" height="24" viewBox="0 0 24 24" fill="none" xmlns="http://www.w3.org/2000/svg">
<circle cx="12" cy="12" r="9" fill="#881D1D"/>
<path d="M15 16L14.505 16.495L15 16.9899L15.495 16.495L15 16ZM12.5 7.8C12.1134 7.8 11.8 8.1134 11.8 8.5C11.8 8.8866 12.1134 9.2 12.5 9.2L12.5 7.8ZM12.505 14.495L14.505 16.495L15.495 15.505L13.495 13.505L12.505 14.495ZM15.495 16.495L17.495 14.495L16.505 13.505L14.505 15.505L15.495 16.495ZM15.7 16L15.7 11L14.3 11L14.3 16L15.7 16ZM15.7 11C15.7 9.23269 14.2673 7.8 12.5 7.8L12.5 9.2C13.4941 9.2 14.3 10.0059 14.3 11L15.7 11Z" fill="#F2F2F2"/>
<path d="M9 8L9.49497 7.50503L9 7.01005L8.50503 7.50503L9 8ZM11.5 16.2C11.8866 16.2 12.2 15.8866 12.2 15.5C12.2 15.1134 11.8866 14.8 11.5 14.8L11.5 16.2ZM11.495 9.50503L9.49497 7.50503L8.50503 8.49497L10.505 10.495L11.495 9.50503ZM8.50503 7.50503L6.50503 9.50503L7.49497 10.495L9.49497 8.49497L8.50503 7.50503ZM8.3 8L8.3 13L9.7 13L9.7 8L8.3 8ZM8.3 13C8.3 14.7673 9.73269 16.2 11.5 16.2L11.5 14.8C10.5059 14.8 9.7 13.9941 9.7 13L8.3 13Z" fill="#F2F2F2"/>
</svg>
