<svg width="752" height="182" viewBox="0 0 752 182" fill="none" xmlns="http://www.w3.org/2000/svg">
<path d="M564 26C564 12.1929 575.193 1 589 1H752V182H564V26Z" fill="#881D1D"/>
<path d="M616.932 92.5455C616.932 82.7273 618.705 74.2424 622.25 67.0909C625.795 59.9394 630.659 54.4242 636.841 50.5455C643.023 46.6667 650.083 44.7273 658.023 44.7273C665.962 44.7273 673.023 46.6667 679.205 50.5455C685.386 54.4242 690.25 59.9394 693.795 67.0909C697.341 74.2424 699.114 82.7273 699.114 92.5455C699.114 102.364 697.341 110.848 693.795 118C690.25 125.152 685.386 130.667 679.205 134.545C673.023 138.424 665.962 140.364 658.023 140.364C650.083 140.364 643.023 138.424 636.841 134.545C630.659 130.667 625.795 125.152 622.25 118C618.705 110.848 616.932 102.364 616.932 92.5455ZM627.841 92.5455C627.841 100.606 629.189 107.409 631.886 112.955C634.553 118.5 638.174 122.697 642.75 125.545C647.295 128.394 652.386 129.818 658.023 129.818C663.659 129.818 668.765 128.394 673.341 125.545C677.886 122.697 681.508 118.5 684.205 112.955C686.871 107.409 688.205 100.606 688.205 92.5455C688.205 84.4849 686.871 77.6818 684.205 72.1364C681.508 66.5909 677.886 62.3939 673.341 59.5455C668.765 56.697 663.659 55.2727 658.023 55.2727C652.386 55.2727 647.295 56.697 642.75 59.5455C638.174 62.3939 634.553 66.5909 631.886 72.1364C629.189 77.6818 627.841 84.4849 627.841 92.5455Z" fill="white"/>
<path d="M376 0H539C552.807 0 564 11.1929 564 25V181H376V0Z" fill="white"/>
<path d="M476 45H504.727V138.091H474.727C465.697 138.091 457.97 136.227 451.545 132.5C445.121 128.803 440.197 123.485 436.773 116.545C433.348 109.636 431.636 101.364 431.636 91.7273C431.636 82.0303 433.364 73.6818 436.818 66.6818C440.273 59.7121 445.303 54.3485 451.909 50.5909C458.515 46.8636 466.545 45 476 45ZM493.455 55H476.727C469.03 55 462.652 56.4848 457.591 59.4545C452.53 62.4242 448.758 66.6515 446.273 72.1364C443.788 77.6212 442.545 84.1515 442.545 91.7273C442.545 99.2424 443.773 105.712 446.227 111.136C448.682 116.591 452.348 120.773 457.227 123.682C462.106 126.621 468.182 128.091 475.455 128.091H493.455V55Z" fill="#271313"/>
<path d="M188 1H376V157C376 170.807 364.807 182 351 182H188V1Z" fill="#881D1D"/>
<path d="M0 1H188V182H25C11.1929 182 0 170.807 0 157V1Z" fill="white"/>
<path d="M59.1193 54.9091V44.9091H128.938V54.9091H99.6648V138H88.392V54.9091H59.1193Z" fill="#271313"/>
<path d="M323.068 91.4545C323.068 101.273 321.295 109.758 317.75 116.909C314.205 124.061 309.341 129.576 303.159 133.455C296.977 137.333 289.917 139.273 281.977 139.273C274.038 139.273 266.977 137.333 260.795 133.455C254.614 129.576 249.75 124.061 246.205 116.909C242.659 109.758 240.886 101.273 240.886 91.4545C240.886 81.6364 242.659 73.1515 246.205 66C249.75 58.8485 254.614 53.3333 260.795 49.4545C266.977 45.5758 274.038 43.6364 281.977 43.6364C289.917 43.6364 296.977 45.5758 303.159 49.4545C309.341 53.3333 314.205 58.8485 317.75 66C321.295 73.1515 323.068 81.6364 323.068 91.4545ZM312.159 91.4545C312.159 83.3939 310.811 76.5909 308.114 71.0455C305.447 65.5 301.826 61.303 297.25 58.4545C292.705 55.6061 287.614 54.1818 281.977 54.1818C276.341 54.1818 271.235 55.6061 266.659 58.4545C262.114 61.303 258.492 65.5 255.795 71.0455C253.129 76.5909 251.795 83.3939 251.795 91.4545C251.795 99.5151 253.129 106.318 255.795 111.864C258.492 117.409 262.114 121.606 266.659 124.455C271.235 127.303 276.341 128.727 281.977 128.727C287.614 128.727 292.705 127.303 297.25 124.455C301.826 121.606 305.447 117.409 308.114 111.864C310.811 106.318 312.159 99.5151 312.159 91.4545Z" fill="white"/>
</svg>
